<svg xmlns="http://www.w3.org/2000/svg" viewBox="0 0 96 96.52"><defs><style>.a{isolation:isolate;}.b{fill:#fcea03;}.c{mix-blend-mode:multiply;}</style></defs><title>LOGO</title><g class="a"><path class="b" d="M47.74,96.52H16.21c-9,0-16.12-7.35-16.12-16.73L0,48.27A48.32,48.32,0,0,1,48.26,0h31A16.75,16.75,0,0,1,96,16.73V48.26A48.32,48.32,0,0,1,47.74,96.52"/><path class="c" d="M47.74,96.52H16.21c-9,0-16.12-7.35-16.12-16.73L0,48.27A48.32,48.32,0,0,1,48.26,0h31A16.75,16.75,0,0,1,96,16.73V48.26A48.32,48.32,0,0,1,47.74,96.52m.52-89.16a41,41,0,0,0-40.9,40.9l.09,31.52c0,5.35,3.76,9.38,8.76,9.38H48.33a41,41,0,0,0,40.31-40.9V16.73a9.38,9.38,0,0,0-9.37-9.37Z"/><path d="M16.05,63.15H21.2a1.28,1.28,0,1,0,0-2.56H17.32V50.39a1.28,1.28,0,0,0-2.56,0V61.88A1.28,1.28,0,0,0,16.05,63.15Z"/><path d="M26.38,63.15h6.29a1.28,1.28,0,1,0,0-2.56h-5V57.4h3.88a1.27,1.27,0,1,0,0-2.53H27.65V51.68h5a1.28,1.28,0,1,0,0-2.56H26.38a1.28,1.28,0,0,0-1.29,1.27V61.88A1.28,1.28,0,0,0,26.38,63.15Z"/><path d="M44,58l2.86-3.83v7.67a1.28,1.28,0,0,0,2.56,0V50.39a1.28,1.28,0,0,0-1.29-1.27,1.26,1.26,0,0,0-1,.5L43,55.16l-4.14-5.54a1.28,1.28,0,0,0-2.3.77V61.88a1.28,1.28,0,0,0,2.56,0V54.21L42,58a1.29,1.29,0,0,0,1,.52A1.31,1.31,0,0,0,44,58Z"/><path d="M58.77,49.12a7,7,0,1,0,6.73,7A6.88,6.88,0,0,0,58.77,49.12Zm4.18,7a4.18,4.18,0,1,1-4.18-4.45A4.33,4.33,0,0,1,63,56.13Z"/><path d="M77.42,49.12a1.28,1.28,0,0,0-1.29,1.27v7.45l-5.71-8.17a1.24,1.24,0,0,0-1-.55,1.28,1.28,0,0,0-1.29,1.27V61.88a1.28,1.28,0,0,0,2.56,0V54.43l5.71,8.17a1.28,1.28,0,0,0,1,.55,1.29,1.29,0,0,0,1.27-1.27V50.39A1.27,1.27,0,0,0,77.42,49.12Z"/><path d="M21.77,70a4.46,4.46,0,0,1,3.16,1.29,1.17,1.17,0,0,0,.9.38,1.22,1.22,0,0,0,.89-.37,1.24,1.24,0,0,0,.38-.92,1.21,1.21,0,0,0-.36-.87,7,7,0,0,0-12,5,7,7,0,0,0,12,5,1.3,1.3,0,0,0,.38-.92v-4a1.27,1.27,0,0,0-1.27-1.27h-4a1.27,1.27,0,1,0,0,2.53h2.75V78a4.44,4.44,0,0,1-2.79,1,4.37,4.37,0,0,1-3.15-1.32A4.46,4.46,0,0,1,21.77,70Z"/><path d="M39.73,67.69A1.25,1.25,0,0,0,38,68l-3,4.24L32,68a1.28,1.28,0,0,0-1-.55,1.3,1.3,0,0,0-1.27,1.33,1.07,1.07,0,0,0,.24.68l3.78,5.4v5.35a1.28,1.28,0,0,0,2.55,0V74.86L40,69.46a1.33,1.33,0,0,0,.24-.74A1.27,1.27,0,0,0,39.73,67.69Z"/><path d="M54.48,67.45a1.25,1.25,0,0,0-1,.5l-4.15,5.54L45.17,68a1.23,1.23,0,0,0-1-.51,1.27,1.27,0,0,0-1.28,1.27V80.21a1.27,1.27,0,0,0,1.26,1.27,1.28,1.28,0,0,0,1.29-1.27V72.54l2.86,3.83a1.28,1.28,0,0,0,2.06,0l2.86-3.83v7.67a1.28,1.28,0,0,0,2.55,0V68.72A1.27,1.27,0,0,0,54.48,67.45Z"/></g></svg>